<svg xmlns="http://www.w3.org/2000/svg" width="162" height="195" fill="none" viewBox="0 0 162 195"><path fill="url(#paint0_linear_0_1)" fill-rule="evenodd" d="M50.516 16.818C42.459 16.56 35.943 16.35 34.125 17.142C-33.9152 46.777 22.745 177.097 28.927 190.796C31.961 184.444 34.155 177.691 35.452 170.809C33.634 169.646 31.721 168.595 29.722 167.664C31.735 167.449 33.781 167.339 35.855 167.339C41.503 167.339 46.951 168.157 52.075 169.678C48.405 178.982 42.02 187.018 33.841 192.908C40.675 194.194 53.94 195.898 62.169 191.835C67.18 179.224 67.87 165.663 64.212 153.538C64.959 152.383 66.055 151.942 67.932 152.255C70.391 156.944 72.163 161.909 73.243 166.997L104.363 160.483C105.856 153.071 105.691 145.548 103.86 138.529C104.88 137.832 105.921 137.178 106.981 136.567C110.478 143.538 112.224 151.188 112.19 158.845L116.201 158.005C120.391 147.691 121.185 136.607 118.562 126.555C119.583 125.858 120.624 125.204 121.684 124.593C126.57 134.332 128.036 145.396 126.011 155.952L147.228 151.511C155.567 149.765 161.54 142.412 161.54 133.892V27.399C161.54 8.45 141.01 -4.08 123.408 2.936C111.684 7.608 98.336 12.261 84.984 15.531C76.342 17.647 61.892 17.183 50.516 16.818ZM132.269 38.806C126.328 37.807 120.137 37.676 113.854 38.53C94.93 41.101 79.206 52.06 69.922 67.148C77.435 59.061 87.688 53.427 99.479 51.825C104.554 51.136 109.554 51.242 114.352 52.048C111.372 65.079 103.189 76.382 91.823 83.301C112.337 76.527 127.558 59.41 132.269 38.806Z" clip-rule="evenodd"/><path fill="#fff" d="M25 53V110.25H25.029C25.029 120.499 27.585 128.562 32.727 134.587C38.044 140.583 45.007 143.654 53.615 143.655C63.634 143.655 71.184 139.726 76.179 131.959L81.055 123.689L85.933 131.959C90.927 139.756 98.507 143.655 108.496 143.655C117.104 143.655 124.067 140.612 129.385 134.587C134.526 128.562 137.082 120.44 137.082 110.25V53L117.574 65.1582V108.773C117.574 118.993 113.314 124.161 104.853 124.161C95.422 124.161 90.751 118.048 90.751 105.85V79.298H71.36V105.85C71.36 117.988 66.63 124.161 57.258 124.161C48.768 124.161 44.537 118.993 44.537 108.773V65.1288L25 53Z"/><defs><linearGradient id="paint0_linear_0_1" x1="105.159" x2="110.686" y1="151.638" y2="4.301" gradientUnits="userSpaceOnUse"><stop stop-color="#563ACC"/><stop offset="1" stop-color="#6364FF"/></linearGradient></defs></svg>